# xmcd CD database file
#
# Track frame offsets:
#	151
#	17201
#	36579
#	60917
#	73508
#	92870
#	121645
#	166899
#	210979
#	233519
#	309034
#
# Disc length: 4560 seconds
#
# Revision: 0
# Processed by: cddbd v1.5.2PL0 Copyright (c) Steve Scherf et al.
# Submitted via: CDex 1.51
#
DISCID=7e11ce0b
DTITLE=Cornbread Harris - CornBread Supreme Volume 2
DYEAR=2002
DGENRE=Blues
TTITLE0=Cry'n All Alone
TTITLE1=Fate
TTITLE2=Washday Blues
TTITLE3=Where Are You Going
TTITLE4=Davina
TTITLE5=No Stopping
TTITLE6=Street People
TTITLE7=Dirty Old Man
TTITLE8=Eccentrology
TTITLE9=Calypso Blues
TTITLE10=Cool Rider
EXTD=YEAR: 2002
EXTT0=
EXTT1=
EXTT2=
EXTT3=
EXTT4=
EXTT5=
EXTT6=
EXTT7=
EXTT8=
EXTT9=
EXTT10=
PLAYORDER=
